<svg width="161" height="49" viewBox="0 0 161 49" fill="none" xmlns="http://www.w3.org/2000/svg">
<path fill-rule="evenodd" clip-rule="evenodd" d="M0 11.1423C0 5.1988 4.81813 0.380676 10.7616 0.380676H51.6117C57.5552 0.380676 62.3733 5.1988 62.3733 11.1423C62.3733 17.0857 57.5552 21.9039 51.6117 21.9039H35.64C34.2721 21.9039 33.1632 23.0128 33.1632 24.3807C33.1632 25.7486 34.2721 26.8575 35.64 26.8575H150.003C155.947 26.8575 160.765 31.6756 160.765 37.6191C160.765 43.5626 155.947 48.3807 150.003 48.3807H10.7616C4.81817 48.3807 4.88281e-05 43.5626 4.88281e-05 37.6191C4.88281e-05 31.6756 4.81818 26.8575 10.7616 26.8575H26.7332C28.1011 26.8575 29.21 25.7486 29.21 24.3807C29.21 23.0128 28.1011 21.9039 26.7332 21.9039H10.7616C4.81813 21.9039 0 17.0857 0 11.1423ZM63.7516 42.2662C62.9974 42.2662 62.4076 42.1601 61.9835 41.9454C61.5581 41.732 61.2612 41.4126 61.0916 40.9845C60.9219 40.5578 60.8371 40.0303 60.8371 39.3994V35.8302C60.8371 34.8057 61.0651 34.0503 61.5223 33.5652C61.9782 33.0801 62.7218 32.8363 63.7529 32.8363H68.5467C69.2796 32.8363 69.8389 32.876 70.2272 32.9569C70.6142 33.0364 70.8091 33.1199 70.8091 33.2047L70.491 34.5327C70.3107 34.5009 69.7766 34.4664 68.89 34.428C68.0033 34.3909 66.7164 34.3723 65.0279 34.3723H64.2154C63.3659 34.3723 62.9418 34.7514 62.9418 35.5095V39.5916C62.9418 39.9547 63.0345 40.2344 63.2201 40.4319C63.4056 40.6293 63.7383 40.7274 64.2154 40.7274H64.8688C66.6315 40.7274 67.9993 40.7089 68.9708 40.6718C69.9423 40.6346 70.5453 40.5949 70.7786 40.5512L71.432 41.6075C71.432 41.6605 71.3445 41.7413 71.1696 41.8474C70.9946 41.9547 70.6726 42.0501 70.206 42.135C69.7382 42.2198 69.0649 42.2635 68.1835 42.2635H63.7555L63.7516 42.2662ZM28.2322 42.2661V34.135L28.0732 32.8388H35.1294C35.8093 32.8388 36.3421 32.9303 36.7304 33.1105C37.1174 33.2921 37.405 33.5293 37.5905 33.8222C37.7761 34.1165 37.8954 34.4279 37.9484 34.7593C38.0014 35.0906 38.0279 35.4047 38.0279 35.7043V36.6492C38.0279 36.8944 37.9908 37.1701 37.9166 37.4736C37.8424 37.7771 37.7045 38.0713 37.5031 38.3536C37.3016 38.6359 37.0087 38.8719 36.627 39.0574C36.2453 39.2443 35.7456 39.3371 35.1294 39.3371H33.5045C32.8352 39.3371 32.2109 39.3211 31.6331 39.2893C31.0539 39.2575 30.6218 39.231 30.3355 39.2098V42.2674H28.2335L28.2322 42.2661ZM30.3342 37.7996H34.6668C35.1453 37.7996 35.474 37.6817 35.6542 37.4471C35.8344 37.2125 35.9246 36.9302 35.9246 36.5989V35.5903C35.9246 35.2483 35.8344 34.9607 35.6542 34.7261C35.474 34.4916 35.1492 34.3736 34.6827 34.3736H30.3342V37.7996ZM13.0358 42.266C12.3135 42.266 11.7833 42.2342 11.4427 42.1706C11.1034 42.107 10.9324 42.0314 10.9324 41.9466L11.5699 40.5537C11.8138 40.5961 12.4221 40.6358 13.3936 40.6743C14.3651 40.7114 15.7011 40.7299 17.4002 40.7299H17.7024C18.1583 40.7299 18.483 40.6478 18.6738 40.4821C18.8647 40.3164 18.9601 40.0368 18.9601 39.6418V39.3211C18.9601 38.9473 18.8833 38.6809 18.7295 38.5206C18.5758 38.3602 18.2325 38.2807 17.7024 38.2807H14.0073C12.9351 38.2807 12.1544 38.0806 11.6654 37.6803C11.1763 37.28 10.9324 36.6266 10.9324 35.7188V35.463C10.9324 34.9938 11.0199 34.5617 11.1949 34.1668C11.3698 33.7718 11.6693 33.4551 12.0948 33.2138C12.5189 32.974 13.1034 32.8534 13.8469 32.8534H18.1795C18.9018 32.8534 19.485 32.8905 19.9316 32.966C20.3783 33.0402 20.6009 33.1211 20.6009 33.2059L20.2828 34.5511C20.0072 34.5193 19.3803 34.4849 18.4035 34.4464C17.4267 34.4093 16.1146 34.3908 14.4685 34.3908L14.2935 34.3749C13.8045 34.3749 13.4758 34.4743 13.3062 34.6704C13.1365 34.8679 13.0451 35.1157 13.0358 35.4153V35.687C13.0358 36.0395 13.1339 36.3033 13.33 36.4795C13.5262 36.6558 13.8535 36.7433 14.3095 36.7433H17.8455C18.5254 36.7433 19.1046 36.8122 19.5817 36.9514C20.0602 37.0905 20.426 37.3437 20.6804 37.7121C20.9349 38.0806 21.0621 38.6226 21.0621 39.337V39.5928C21.0621 40.3933 20.858 41.0388 20.4485 41.5291C20.039 42.0195 19.3312 42.266 18.3226 42.266H13.0358ZM47.4725 32.8534L42.8059 42.266H45.1306L46.1657 40.2329H51.8687L52.8084 42.266H55.2616L50.6109 32.8534H47.4725ZM51.2802 38.665H46.7422L48.9397 34.2953H49.0987L51.2802 38.665ZM77.8007 32.8534V42.266H86.4977C87.1988 42.266 87.6932 42.2475 87.9795 42.2104C88.2657 42.1719 88.4089 42.1322 88.4089 42.0898L87.7714 40.7286H79.9027V38.1839H85.8602V36.5988H79.9027V34.3894H87.7078V32.8534H77.8007ZM97.9819 42.2661L97.966 34.3749H93.8243V32.8388H104.242V34.3749H100.084V42.2661H97.9819ZM110.612 32.8534V42.266H112.714V32.8534H110.612ZM120.202 42.2662V34.1351L120.043 32.8549H122.464L126.064 39.2576L129.791 32.8549H131.94V42.2675H129.838V36.2968H129.663L129.042 37.6898L127.035 41.308H125.108L123.101 37.6898L122.464 36.2968H122.305V42.2675H120.203L120.202 42.2662ZM139.268 32.8534V42.266H147.965C148.666 42.266 149.16 42.2475 149.447 42.2104C149.733 42.1719 149.876 42.1322 149.876 42.0898L149.238 40.7286H141.37V38.1839H147.327V36.5988H141.37V34.3894H149.175V32.8534H139.268ZM13.9613 8.61319V10.8893V10.8905L10.9265 12.1159L13.9613 13.3475V15.626L8.04073 13.2876H8.02851V10.9528H8.04073L13.9613 8.61319ZM48.4541 15.5051V13.2302L51.4865 12.006L48.4541 10.7818V8.50568L54.3661 10.8429H54.3808V13.1801H54.3661L48.4541 15.5051ZM45.9153 5.28881L42.4382 17.1435H44.503L47.9801 5.28881H45.9153ZM23.5216 10.7C23.5583 9.77271 23.2492 8.86861 22.6615 8.18321H22.6628C22.372 7.85945 22.0189 7.60532 21.6279 7.43794C21.237 7.27056 20.8179 7.19481 20.3964 7.21314C19.9444 7.19237 19.4935 7.27056 19.0708 7.44161C18.6481 7.61265 18.262 7.87411 17.9382 8.20887V7.45993H15.8735V15.7495H17.9382V12.0782C17.9382 10.1734 18.5845 9.2217 19.8772 9.2217C20.0934 9.21193 20.3097 9.25469 20.5088 9.34632C20.7067 9.43795 20.8839 9.57723 21.0256 9.75194C21.3274 10.1515 21.4813 10.6536 21.4569 11.1643V15.7495H23.5216V10.7ZM26.1497 4.01226V15.8669H28.2144V4.01226H26.1497ZM38.1583 15.4319H39.8797L42.7765 7.12771H40.57L38.9439 12.11L37.2689 7.12771H35.6586L33.9836 12.0941L32.3574 7.12771H30.1509L33.0453 15.4319H34.7655L36.4698 10.5486L38.1583 15.4319Z" fill="url(#paint0_linear_308_206)"/>
<defs>
<linearGradient id="paint0_linear_308_206" x1="12.8968" y1="0.380677" x2="200.883" y2="58.8863" gradientUnits="userSpaceOnUse">
<stop offset="0.251308" stop-color="#996DFF"/>
<stop offset="0.623787" stop-color="#FF876E"/>
<stop offset="1" stop-color="#FFD072"/>
</linearGradient>
</defs>
</svg>
